TITLE "125.000, flac"
FILE "125.000.flac" WAVE

TRACK 01 AUDIO
TITLE "2020.02.06-06:01.04:122641"
INDEX 01 02:03:60

TRACK 02 AUDIO
TITLE "2020.02.06-06:01.11:322653"
INDEX 00 02:10:04
INDEX 01 02:11:00

TRACK 03 AUDIO
TITLE "2020.02.06-06:01.17:702573"
INDEX 00 02:15:58
INDEX 01 02:17:28

TRACK 04 AUDIO
TITLE "2020.02.06-06:01.56:482693"
INDEX 00 02:29:67
INDEX 01 02:56:12

TRACK 05 AUDIO
TITLE "2020.02.06-06:02.05:222683"
INDEX 00 03:04:30
INDEX 01 03:04:67

TRACK 06 AUDIO
TITLE "2020.02.06-06:03.03:867467"
INDEX 00 03:08:16
INDEX 01 04:03:41

TRACK 07 AUDIO
TITLE "2020.02.06-06:03.10:942567"
INDEX 00 04:10:17
INDEX 01 04:10:46

TRACK 08 AUDIO
TITLE "2020.02.06-06:04.12:942756"
INDEX 00 04:22:63
INDEX 01 05:12:46

TRACK 09 AUDIO
TITLE "2020.02.06-06:04.17:502685"
INDEX 00 05:17:01
INDEX 01 05:17:13

TRACK 10 AUDIO
TITLE "2020.02.06-06:04.22:265716"
INDEX 00 05:21:67
INDEX 01 05:21:71

TRACK 11 AUDIO
TITLE "2020.02.06-06:04.26:584702"
INDEX 00 05:26:08
INDEX 01 05:26:20

TRACK 12 AUDIO
TITLE "2020.02.06-06:04.30:562616"
INDEX 00 05:30:14
INDEX 01 05:30:18

TRACK 13 AUDIO
TITLE "2020.02.06-06:04.34:182613"
INDEX 00 05:33:16
INDEX 01 05:33:64

TRACK 14 AUDIO
TITLE "2020.02.06-06:04.51:243393"
INDEX 00 05:44:55
INDEX 01 05:50:69

TRACK 15 AUDIO
TITLE "2020.02.06-06:05.11:962531"
INDEX 00 06:02:12
INDEX 01 06:11:48

TRACK 16 AUDIO
TITLE "2020.02.06-06:05.16:162730"
INDEX 00 06:15:58
INDEX 01 06:15:63

TRACK 17 AUDIO
TITLE "2020.02.06-06:05.21:262692"
INDEX 00 06:19:16
INDEX 01 06:20:70

TRACK 18 AUDIO
TITLE "2020.02.06-06:05.53:103555"
INDEX 00 06:40:22
INDEX 01 06:52:58

TRACK 19 AUDIO
TITLE "2020.02.06-06:06.37:764513"
INDEX 00 07:00:12
INDEX 01 07:37:33

TRACK 20 AUDIO
TITLE "2020.02.06-06:06.41:164645"
INDEX 00 07:40:50
INDEX 01 07:40:63

TRACK 21 AUDIO
TITLE "2020.02.06-06:07.03:402695"
INDEX 00 08:00:36
INDEX 01 08:03:06

TRACK 22 AUDIO
TITLE "2020.02.06-06:07.18:202707"
INDEX 00 08:14:28
INDEX 01 08:17:66

TRACK 23 AUDIO
TITLE "2020.02.06-06:07.22:102595"
INDEX 00 08:21:31
INDEX 01 08:21:58

TRACK 24 AUDIO
TITLE "2020.02.06-06:07.38:382639"
INDEX 00 08:32:52
INDEX 01 08:38:04

TRACK 25 AUDIO
TITLE "2020.02.06-06:07.48:422738"
INDEX 00 08:44:39
INDEX 01 08:48:07

TRACK 26 AUDIO
TITLE "2020.02.06-06:07.52:805580"
INDEX 00 08:52:10
INDEX 01 08:52:36

TRACK 27 AUDIO
TITLE "2020.02.06-06:07.56:643786"
INDEX 00 08:56:09
INDEX 01 08:56:24

TRACK 28 AUDIO
TITLE "2020.02.06-06:08.07:162789"
INDEX 00 09:04:18
INDEX 01 09:06:63

TRACK 29 AUDIO
TITLE "2020.02.06-06:08.19:942833"
INDEX 00 09:13:45
INDEX 01 09:19:46

TRACK 30 AUDIO
TITLE "2020.02.06-06:08.42:242641"
INDEX 00 09:39:19
INDEX 01 09:41:69

TRACK 31 AUDIO
TITLE "2020.02.06-06:09.09:942714"
INDEX 00 09:52:27
INDEX 01 10:09:46

TRACK 32 AUDIO
TITLE "2020.02.06-06:09.22:082657"
INDEX 00 10:19:66
INDEX 01 10:21:57

TRACK 33 AUDIO
TITLE "2020.02.06-06:09.28:942599"
INDEX 00 10:24:13
INDEX 01 10:28:46

TRACK 34 AUDIO
TITLE "2020.02.06-06:10.41:222573"
INDEX 00 10:35:43
INDEX 01 11:40:67

TRACK 35 AUDIO
TITLE "2020.02.06-06:10.54:884092"
INDEX 00 11:54:30
INDEX 01 11:54:42

TRACK 36 AUDIO
TITLE "2020.02.06-06:11.47:362817"
INDEX 00 12:03:38
INDEX 01 12:47:03

TRACK 37 AUDIO
TITLE "2020.02.06-06:11.51:965758"
INDEX 00 12:51:07
INDEX 01 12:51:48

TRACK 38 AUDIO
TITLE "2020.02.06-06:12.01:522651"
INDEX 00 12:55:56
INDEX 01 13:01:15

TRACK 39 AUDIO
TITLE "2020.02.06-06:12.05:862645"
INDEX 00 13:04:70
INDEX 01 13:05:40

TRACK 40 AUDIO
TITLE "2020.02.06-06:12.16:222559"
INDEX 00 13:14:39
INDEX 01 13:15:67

TRACK 41 AUDIO
TITLE "2020.02.06-06:12.42:382542"
INDEX 00 13:22:54
INDEX 01 13:42:04

TRACK 42 AUDIO
TITLE "2020.02.06-06:13.43:924036"
INDEX 00 13:52:64
INDEX 01 14:43:45

TRACK 43 AUDIO
TITLE "2020.02.06-06:14.33:362909"
INDEX 00 14:57:19
INDEX 01 15:33:03

TRACK 44 AUDIO
TITLE "2020.02.06-06:14.39:302552"
INDEX 00 15:36:37
INDEX 01 15:38:73

TRACK 45 AUDIO
TITLE "2020.02.06-06:14.46:262568"
INDEX 00 15:44:72
INDEX 01 15:45:70

TRACK 46 AUDIO
TITLE "2020.02.06-06:14.57:543987"
INDEX 00 15:56:72
INDEX 01 15:57:16

TRACK 47 AUDIO
TITLE "2020.02.06-06:15.05:662646"
INDEX 00 16:05:16
INDEX 01 16:05:25

TRACK 48 AUDIO
TITLE "2020.02.06-06:15.34:762559"
INDEX 00 16:18:15
INDEX 01 16:34:33

TRACK 49 AUDIO
TITLE "2020.02.06-06:15.47:402761"
INDEX 00 16:46:73
INDEX 01 16:47:06

TRACK 50 AUDIO
TITLE "2020.02.06-06:16.03:082777"
INDEX 00 17:02:31
INDEX 01 17:02:57

TRACK 51 AUDIO
TITLE "2020.02.06-06:16.08:363049"
INDEX 00 17:06:24
INDEX 01 17:08:03

TRACK 52 AUDIO
TITLE "2020.02.06-06:16.12:902699"
INDEX 00 17:12:31
INDEX 01 17:12:43

TRACK 53 AUDIO
TITLE "2020.02.06-06:16.43:662793"
INDEX 00 17:42:58
INDEX 01 17:43:25

TRACK 54 AUDIO
TITLE "2020.02.06-06:16.51:366759"
INDEX 00 17:50:55
INDEX 01 17:51:03

TRACK 55 AUDIO
TITLE "2020.02.06-06:17.41:047464"
INDEX 00 18:03:06
INDEX 01 18:40:54

TRACK 56 AUDIO
TITLE "2020.02.06-06:18.19:842654"
INDEX 00 18:48:60
INDEX 01 19:19:39

TRACK 57 AUDIO
TITLE "2020.02.06-06:19.13:866148"
INDEX 00 19:38:24
INDEX 01 20:13:41

TRACK 58 AUDIO
TITLE "2020.02.06-06:19.23:722547"
INDEX 00 20:15:32
INDEX 01 20:23:30

TRACK 59 AUDIO
TITLE "2020.02.06-06:19.31:382562"
INDEX 00 20:28:49
INDEX 01 20:31:04

TRACK 60 AUDIO
TITLE "2020.02.06-06:19.49:702575"
INDEX 00 20:35:04
INDEX 01 20:49:28

TRACK 61 AUDIO
TITLE "2020.02.06-06:20.05:542599"
INDEX 00 21:03:72
INDEX 01 21:05:16

TRACK 62 AUDIO
TITLE "2020.02.06-06:21.24:942891"
INDEX 00 21:12:22
INDEX 01 22:24:46

TRACK 63 AUDIO
TITLE "2020.02.06-06:21.34:122672"
INDEX 00 22:32:30
INDEX 01 22:33:60

TRACK 64 AUDIO
TITLE "2020.02.06-06:22.02:322658"
INDEX 00 22:45:45
INDEX 01 23:02:00

TRACK 65 AUDIO
TITLE "2020.02.06-06:22.07:862643"
INDEX 00 23:06:22
INDEX 01 23:07:40

TRACK 66 AUDIO
TITLE "2020.02.06-06:22.20:022595"
INDEX 00 23:18:61
INDEX 01 23:19:52

TRACK 67 AUDIO
TITLE "2020.02.06-06:23.24:302688"
INDEX 00 23:23:00
INDEX 01 24:23:73

TRACK 68 AUDIO
TITLE "2020.02.06-06:24.08:982789"
INDEX 00 24:37:36
INDEX 01 25:08:49

TRACK 69 AUDIO
TITLE "2020.02.06-06:24.14:982842"
INDEX 00 25:14:42
INDEX 01 25:14:49

TRACK 70 AUDIO
TITLE "2020.02.06-06:24.30:282743"
INDEX 00 25:18:55
INDEX 01 25:29:72

TRACK 71 AUDIO
TITLE "2020.02.06-06:25.03:002647"
INDEX 00 25:40:48
INDEX 01 26:02:51

TRACK 72 AUDIO
TITLE "2020.02.06-06:25.07:722639"
INDEX 00 26:07:22
INDEX 01 26:07:30

TRACK 73 AUDIO
TITLE "2020.02.06-06:25.18:762635"
INDEX 00 26:16:07
INDEX 01 26:18:33

TRACK 74 AUDIO
TITLE "2020.02.06-06:25.26:422661"
INDEX 00 26:25:64
INDEX 01 26:26:07

TRACK 75 AUDIO
TITLE "2020.02.06-06:25.33:822620"
INDEX 00 26:33:13
INDEX 01 26:33:37

TRACK 76 AUDIO
TITLE "2020.02.06-06:25.53:282673"
INDEX 00 26:36:63
INDEX 01 26:52:72

TRACK 77 AUDIO
TITLE "2020.02.06-06:25.57:525640"
INDEX 00 26:56:70
INDEX 01 26:57:15

TRACK 78 AUDIO
TITLE "2020.02.06-06:26.05:722576"
INDEX 00 27:00:74
INDEX 01 27:05:30

TRACK 79 AUDIO
TITLE "2020.02.06-06:26.20:362639"
INDEX 00 27:17:21
INDEX 01 27:20:03

TRACK 80 AUDIO
TITLE "2020.02.06-06:26.26:062728"
INDEX 00 27:24:61
INDEX 01 27:25:55

TRACK 81 AUDIO
TITLE "2020.02.06-06:26.30:462602"
INDEX 00 27:30:03
INDEX 01 27:30:10

TRACK 82 AUDIO
TITLE "2020.02.06-06:26.39:286776"
INDEX 00 27:33:33
INDEX 01 27:38:72

TRACK 83 AUDIO
TITLE "2020.02.06-06:26.49:542549"
INDEX 00 27:48:51
INDEX 01 27:49:16

TRACK 84 AUDIO
TITLE "2020.02.06-06:27.12:937510"
INDEX 00 28:10:31
INDEX 01 28:12:46

TRACK 85 AUDIO
TITLE "2020.02.06-06:27.20:844736"
INDEX 00 28:20:24
INDEX 01 28:20:39

TRACK 86 AUDIO
TITLE "2020.02.06-06:27.41:682613"
INDEX 00 28:39:06
INDEX 01 28:41:27

TRACK 87 AUDIO
TITLE "2020.02.06-06:28.06:022702"
INDEX 00 28:53:10
INDEX 01 29:05:52

TRACK 88 AUDIO
TITLE "2020.02.06-06:28.10:202598"
INDEX 00 29:09:31
INDEX 01 29:09:66

TRACK 89 AUDIO
TITLE "2020.02.06-06:28.19:922791"
INDEX 00 29:13:25
INDEX 01 29:19:45

TRACK 90 AUDIO
TITLE "2020.02.06-06:28.33:582913"
INDEX 00 29:30:54
INDEX 01 29:33:19

TRACK 91 AUDIO
TITLE "2020.02.06-06:28.42:502656"
INDEX 00 29:40:24
INDEX 01 29:42:13

TRACK 92 AUDIO
TITLE "2020.02.06-06:28.45:982715"
INDEX 00 29:45:43
INDEX 01 29:45:49

TRACK 93 AUDIO
TITLE "2020.02.06-06:29.10:742530"
INDEX 00 29:50:00
INDEX 01 30:10:31

TRACK 94 AUDIO
TITLE "2020.02.06-06:29.14:865299"
INDEX 00 30:14:30
INDEX 01 30:14:41

TRACK 95 AUDIO
TITLE "2020.02.06-06:29.55:022818"
INDEX 00 30:18:03
INDEX 01 30:54:52

TRACK 96 AUDIO
TITLE "2020.02.06-06:30.01:302568"
INDEX 00 30:56:43
INDEX 01 31:00:73

TRACK 97 AUDIO
TITLE "2020.02.06-06:30.06:382565"
INDEX 00 31:05:28
INDEX 01 31:06:04

TRACK 98 AUDIO
TITLE "2020.02.06-06:30.11:122567"
INDEX 00 31:09:69
INDEX 01 31:10:60

TRACK 99 AUDIO
TITLE "2020.02.06-06:30.19:062786"
INDEX 00 31:18:06
INDEX 01 31:18:55

TRACK 100 AUDIO
TITLE "2020.02.06-06:31.00:462573"
INDEX 00 31:35:58
INDEX 01 32:00:10

TRACK 101 AUDIO
TITLE "2020.02.06-06:31.28:864599"
INDEX 00 32:13:40
INDEX 01 32:28:41

TRACK 102 AUDIO
TITLE "2020.02.06-06:31.39:982845"
INDEX 00 32:36:20
INDEX 01 32:39:49

TRACK 103 AUDIO
TITLE "2020.02.06-06:31.48:382723"
INDEX 00 32:47:55
INDEX 01 32:48:04

TRACK 104 AUDIO
TITLE "2020.02.06-06:31.56:463592"
INDEX 00 32:55:04
INDEX 01 32:56:10

TRACK 105 AUDIO
TITLE "2020.02.06-06:32.07:222600"
INDEX 00 33:01:60
INDEX 01 33:06:67

TRACK 106 AUDIO
TITLE "2020.02.06-06:32.11:682623"
INDEX 00 33:11:00
INDEX 01 33:11:27

TRACK 107 AUDIO
TITLE "2020.02.06-06:33.07:202627"
INDEX 00 33:26:69
INDEX 01 34:06:66

TRACK 108 AUDIO
TITLE "2020.02.06-06:34.27:586128"
INDEX 00 34:14:54
INDEX 01 35:27:20

TRACK 109 AUDIO
TITLE "2020.02.06-06:34.32:163351"
INDEX 00 35:31:36
INDEX 01 35:31:63

TRACK 110 AUDIO
TITLE "2020.02.06-06:34.36:242656"
INDEX 00 35:34:52
INDEX 01 35:35:69

TRACK 111 AUDIO
TITLE "2020.02.06-06:34.52:062852"
INDEX 00 35:51:39
INDEX 01 35:51:55

TRACK 112 AUDIO
TITLE "2020.02.06-06:34.56:682681"
INDEX 00 35:56:09
INDEX 01 35:56:27

TRACK 113 AUDIO
TITLE "2020.02.06-06:35.03:142596"
INDEX 00 36:00:70
INDEX 01 36:02:61

TRACK 114 AUDIO
TITLE "2020.02.06-06:35.13:442669"
INDEX 00 36:11:36
INDEX 01 36:13:09

TRACK 115 AUDIO
TITLE "2020.02.06-06:35.18:162623"
INDEX 00 36:17:04
INDEX 01 36:17:63

TRACK 116 AUDIO
TITLE "2020.02.06-06:35.27:266362"
INDEX 00 36:24:70
INDEX 01 36:26:71

TRACK 117 AUDIO
TITLE "2020.02.06-06:36.12:062628"
INDEX 00 36:38:29
INDEX 01 37:11:55

TRACK 118 AUDIO
TITLE "2020.02.06-06:36.15:762713"
INDEX 00 37:15:28
INDEX 01 37:15:33

TRACK 119 AUDIO
TITLE "2020.02.06-06:36.44:682805"
INDEX 00 37:42:43
INDEX 01 37:44:27

TRACK 120 AUDIO
TITLE "2020.02.06-06:36.55:742539"
INDEX 00 37:54:31
INDEX 01 37:55:31

TRACK 121 AUDIO
TITLE "2020.02.06-06:37.20:686165"
INDEX 00 38:01:46
INDEX 01 38:20:27

TRACK 122 AUDIO
TITLE "2020.02.06-06:37.35:022701"
INDEX 00 38:30:48
INDEX 01 38:34:52

TRACK 123 AUDIO
TITLE "2020.02.06-06:37.43:802668"
INDEX 00 38:42:48
INDEX 01 38:43:36

TRACK 124 AUDIO
TITLE "2020.02.06-06:37.55:662536"
INDEX 00 38:54:46
INDEX 01 38:55:25

TRACK 125 AUDIO
TITLE "2020.02.06-06:38.13:364948"
INDEX 00 38:59:55
INDEX 01 39:13:03

TRACK 126 AUDIO
TITLE "2020.02.06-06:38.32:682608"
INDEX 00 39:31:56
INDEX 01 39:32:27

TRACK 127 AUDIO
TITLE "2020.02.06-06:38.38:462623"
INDEX 00 39:38:00
INDEX 01 39:38:10

TRACK 128 AUDIO
TITLE "2020.02.06-06:38.51:682658"
INDEX 00 39:47:09
INDEX 01 39:51:27

TRACK 129 AUDIO
TITLE "2020.02.06-06:38.56:562601"
INDEX 00 39:55:40
INDEX 01 39:56:18

TRACK 130 AUDIO
TITLE "2020.02.06-06:39.11:402523"
INDEX 00 40:10:51
INDEX 01 40:11:06

TRACK 131 AUDIO
TITLE "2020.02.06-06:39.19:122637"
INDEX 00 40:12:72
INDEX 01 40:18:60

TRACK 132 AUDIO
TITLE "2020.02.06-06:39.24:282624"
INDEX 00 40:22:51
INDEX 01 40:23:72

TRACK 133 AUDIO
TITLE "2020.02.06-06:39.30:662689"
INDEX 00 40:28:46
INDEX 01 40:30:25

TRACK 134 AUDIO
TITLE "2020.02.06-06:39.45:442577"
INDEX 00 40:43:42
INDEX 01 40:45:09

TRACK 135 AUDIO
TITLE "2020.02.06-06:40.01:022644"
INDEX 00 40:51:36
INDEX 01 41:00:52

TRACK 136 AUDIO
TITLE "2020.02.06-06:40.16:524341"
INDEX 00 41:09:27
INDEX 01 41:16:15

TRACK 137 AUDIO
TITLE "2020.02.06-06:40.21:582676"
INDEX 00 41:18:14
INDEX 01 41:21:19

TRACK 138 AUDIO
TITLE "2020.02.06-06:40.28:328633"
INDEX 00 41:27:01
INDEX 01 41:28:00

TRACK 139 AUDIO
TITLE "2020.02.06-06:40.45:282629"
INDEX 00 41:43:66
INDEX 01 41:44:72

TRACK 140 AUDIO
TITLE "2020.02.06-06:40.56:282624"
INDEX 00 41:52:34
INDEX 01 41:55:72

TRACK 141 AUDIO
TITLE "2020.02.06-06:41.04:462720"
INDEX 00 42:02:43
INDEX 01 42:04:10

TRACK 142 AUDIO
TITLE "2020.02.06-06:41.44:402845"
INDEX 00 42:11:19
INDEX 01 42:44:06

TRACK 143 AUDIO
TITLE "2020.02.06-06:41.53:742499"
INDEX 00 42:49:54
INDEX 01 42:53:31

TRACK 144 AUDIO
TITLE "2020.02.06-06:42.09:402539"
INDEX 00 43:08:55
INDEX 01 43:09:06

TRACK 145 AUDIO
TITLE "2020.02.06-06:42.24:702628"
INDEX 00 43:23:07
INDEX 01 43:24:28

TRACK 146 AUDIO
TITLE "2020.02.06-06:42.29:362634"
INDEX 00 43:28:61
INDEX 01 43:29:03

TRACK 147 AUDIO
TITLE "2020.02.06-06:42.34:702654"
INDEX 00 43:33:19
INDEX 01 43:34:28

TRACK 148 AUDIO
TITLE "2020.02.06-06:42.38:402612"
INDEX 00 43:38:03
INDEX 01 43:38:06

TRACK 149 AUDIO
TITLE "2020.02.06-06:42.51:202546"
INDEX 00 43:41:28
INDEX 01 43:50:66

TRACK 150 AUDIO
TITLE "2020.02.06-06:42.55:262684"
INDEX 00 43:53:13
INDEX 01 43:54:70

TRACK 151 AUDIO
TITLE "2020.02.06-06:43.04:582682"
INDEX 00 44:00:48
INDEX 01 44:04:19

TRACK 152 AUDIO
TITLE "2020.02.06-06:43.08:942626"
INDEX 00 44:07:01
INDEX 01 44:08:46

TRACK 153 AUDIO
TITLE "2020.02.06-06:43.14:782604"
INDEX 00 44:12:33
INDEX 01 44:14:34

TRACK 154 AUDIO
TITLE "2020.02.06-06:43.24:282716"
INDEX 00 44:19:57
INDEX 01 44:23:72

TRACK 155 AUDIO
TITLE "2020.02.06-06:43.31:582847"
INDEX 00 44:31:12
INDEX 01 44:31:19

TRACK 156 AUDIO
TITLE "2020.02.06-06:44.29:202585"
INDEX 00 44:34:60
INDEX 01 45:28:66

TRACK 157 AUDIO
TITLE "2020.02.06-06:44.33:442631"
INDEX 00 45:32:72
INDEX 01 45:33:09

TRACK 158 AUDIO
TITLE "2020.02.06-06:44.43:842565"
INDEX 00 45:36:48
INDEX 01 45:43:39

TRACK 159 AUDIO
TITLE "2020.02.06-06:45.20:302597"
INDEX 00 45:57:04
INDEX 01 46:19:73

TRACK 160 AUDIO
TITLE "2020.02.06-06:45.28:182676"
INDEX 00 46:24:67
INDEX 01 46:27:64

TRACK 161 AUDIO
TITLE "2020.02.06-06:45.32:082542"
INDEX 00 46:31:46
INDEX 01 46:31:57

TRACK 162 AUDIO
TITLE "2020.02.06-06:45.35:546571"
INDEX 00 46:34:67
INDEX 01 46:35:17

TRACK 163 AUDIO
TITLE "2020.02.06-06:46.49:442638"
INDEX 00 46:53:45
INDEX 01 47:49:09

TRACK 164 AUDIO
TITLE "2020.02.06-06:47.02:045318"
INDEX 00 48:01:19
INDEX 01 48:01:54

TRACK 165 AUDIO
TITLE "2020.02.06-06:47.24:102763"
INDEX 00 48:22:68
INDEX 01 48:23:58

TRACK 166 AUDIO
TITLE "2020.02.06-06:47.56:222604"
INDEX 00 48:41:36
INDEX 01 48:55:67

TRACK 167 AUDIO
TITLE "2020.02.06-06:48.05:602568"
INDEX 00 49:04:73
INDEX 01 49:05:21

TRACK 168 AUDIO
TITLE "2020.02.06-06:49.03:544340"
INDEX 00 49:17:36
INDEX 01 50:03:17

TRACK 169 AUDIO
TITLE "2020.02.06-06:49.13:002581"
INDEX 00 50:12:06
INDEX 01 50:12:51

TRACK 170 AUDIO
TITLE "2020.02.06-06:50.48:822838"
INDEX 00 50:30:07
INDEX 01 51:48:37

TRACK 171 AUDIO
TITLE "2020.02.06-06:51.36:444498"
INDEX 00 51:56:60
INDEX 01 52:36:09

TRACK 172 AUDIO
TITLE "2020.02.06-06:51.45:022657"
INDEX 00 52:43:32
INDEX 01 52:44:52

TRACK 173 AUDIO
TITLE "2020.02.06-06:51.52:962651"
INDEX 00 52:52:42
INDEX 01 52:52:48

TRACK 174 AUDIO
TITLE "2020.02.06-06:51.56:146760"
INDEX 00 52:55:57
INDEX 01 52:55:62

TRACK 175 AUDIO
TITLE "2020.02.06-06:52.00:982714"
INDEX 00 53:00:26
INDEX 01 53:00:49

TRACK 176 AUDIO
TITLE "2020.02.06-06:53.18:922694"
INDEX 00 53:08:07
INDEX 01 54:18:45

TRACK 177 AUDIO
TITLE "2020.02.06-06:53.44:185819"
INDEX 00 54:30:36
INDEX 01 54:43:65

TRACK 178 AUDIO
TITLE "2020.02.06-06:54.29:282618"
INDEX 00 54:55:45
INDEX 01 55:28:72

TRACK 179 AUDIO
TITLE "2020.02.06-06:55.28:662681"
INDEX 00 55:41:58
INDEX 01 56:28:25

TRACK 180 AUDIO
TITLE "2020.02.06-06:55.44:162666"
INDEX 00 56:42:72
INDEX 01 56:43:63

TRACK 181 AUDIO
TITLE "2020.02.06-06:55.49:102728"
INDEX 00 56:48:40
INDEX 01 56:48:58

TRACK 182 AUDIO
TITLE "2020.02.06-06:55.54:242595"
INDEX 00 56:53:63
INDEX 01 56:53:69

TRACK 183 AUDIO
TITLE "2020.02.06-06:56.26:562628"
INDEX 00 56:58:55
INDEX 01 57:26:18

TRACK 184 AUDIO
TITLE "2020.02.06-06:56.31:702566"
INDEX 00 57:31:25
INDEX 01 57:31:28

TRACK 185 AUDIO
TITLE "2020.02.06-06:56.37:642721"
INDEX 00 57:34:60
INDEX 01 57:37:24

TRACK 186 AUDIO
TITLE "2020.02.06-06:57.00:062556"
INDEX 00 57:44:61
INDEX 01 57:59:55

TRACK 187 AUDIO
TITLE "2020.02.06-06:58.04:803741"
INDEX 00 58:24:42
INDEX 01 59:04:36

TRACK 188 AUDIO
TITLE "2020.02.06-06:58.10:864441"
INDEX 00 59:08:70
INDEX 01 59:10:41

TRACK 189 AUDIO
TITLE "2020.02.06-06:58.31:062557"
INDEX 00 59:19:44
INDEX 01 59:30:55

TRACK 190 AUDIO
TITLE "2020.02.06-06:58.38:822678"
INDEX 00 59:36:72
INDEX 01 59:38:37

TRACK 191 AUDIO
TITLE "2020.02.06-06:58.45:622533"
INDEX 00 59:44:10
INDEX 01 59:45:22

TRACK 192 AUDIO
TITLE "2020.02.06-06:59.55:543073"
INDEX 00 59:50:24
INDEX 01 60:55:16

TRACK 193 AUDIO
TITLE "2020.02.06-07:00.01:682684"
INDEX 00 61:00:66
INDEX 01 61:01:27

TRACK 194 AUDIO
TITLE "2020.02.06-07:00.12:382677"
INDEX 00 61:11:49
INDEX 01 61:12:04

TRACK 195 AUDIO
TITLE "2020.02.06-07:00.56:762698"
INDEX 00 61:23:09
INDEX 01 61:56:33

TRACK 196 AUDIO
TITLE "2020.02.06-07:01.04:482696"
INDEX 00 62:02:58
INDEX 01 62:04:12

